<svg height="512pt" viewBox="-15 0 512 512.001" width="512pt" xmlns="http://www.w3.org/2000/svg"><path d="m113.929688 158.136719h98.214843v15.433593h-98.214843zm0 0"/><path d="m66.6875 203.597656c-12.402344 14.886719-20.113281 34.046875-22.292969 55.089844-8.015625 3.082031-14.753906 8.753906-19.167969 15.996094h275.75c-4.414062-7.242188-11.152343-12.917969-19.167968-15.996094-2.191406-21.039062-9.921875-40.195312-22.355469-55.089844zm0 0"/><path d="m15.011719 304.785156c-8.289063 0-15.011719 6.71875-15.011719 15.011719 0 8.289063 6.722656 15.011719 15.011719 15.011719h296.050781c8.289062 0 15.011719-6.722656 15.011719-15.011719 0-8.292969-6.722657-15.011719-15.011719-15.011719zm0 0"/><path d="m39.710938 356.445312c-8.289063 0-15.011719 6.722657-15.011719 15.011719v40.292969c0 8.292969 6.722656 15.015625 15.011719 15.015625 8.292968 0 15.015624-6.722656 15.015624-15.015625v-40.292969c0-8.289062-6.722656-15.011719-15.015624-15.011719zm0 0"/><path d="m100.667969 441.683594c-8.289063 0-15.011719 6.71875-15.011719 15.011718v40.292969c0 8.289063 6.722656 15.011719 15.011719 15.011719 8.292969 0 15.015625-6.722656 15.015625-15.011719v-40.292969c0-8.292968-6.722656-15.011718-15.015625-15.011718zm0 0"/><path d="m222.582031 441.683594c-8.289062 0-15.011719 6.71875-15.011719 15.011718v40.292969c0 8.289063 6.722657 15.011719 15.011719 15.011719 8.292969 0 15.011719-6.722656 15.011719-15.011719v-40.292969c0-8.292968-6.71875-15.011718-15.011719-15.011718zm0 0"/><path d="m100.667969 371.941406c-8.289063 0-15.011719 6.722656-15.011719 15.011719v24.796875c0 8.292969 6.722656 15.011719 15.011719 15.011719 8.292969 0 15.015625-6.71875 15.015625-15.011719v-24.796875c0-8.289063-6.722656-15.011719-15.015625-15.011719zm0 0"/><path d="m161.625 449.429688c-8.289062 0-15.011719 6.722656-15.011719 15.011718v24.796875c0 8.292969 6.722657 15.015625 15.011719 15.015625 8.292969 0 15.011719-6.722656 15.011719-15.015625v-24.796875c0-8.289062-6.71875-15.011718-15.011719-15.011718zm0 0"/><path d="m39.710938 449.429688c-8.289063 0-15.011719 6.722656-15.011719 15.011718v24.796875c0 8.292969 6.722656 15.015625 15.011719 15.015625 8.292968 0 15.015624-6.722656 15.015624-15.015625v-24.796875c0-8.289062-6.722656-15.011718-15.015624-15.011718zm0 0"/><path d="m283.539062 449.429688c-8.289062 0-15.011718 6.722656-15.011718 15.011718v24.796875c0 8.292969 6.722656 15.015625 15.011718 15.015625 8.292969 0 15.011719-6.722656 15.011719-15.015625v-24.796875c0-8.289062-6.71875-15.011718-15.011719-15.011718zm0 0"/><path d="m161.625 356.445312c-8.289062 0-15.011719 6.722657-15.011719 15.011719v40.292969c0 8.292969 6.722657 15.015625 15.011719 15.015625 8.292969 0 15.011719-6.722656 15.011719-15.015625v-40.292969c0-8.289062-6.71875-15.011719-15.011719-15.011719zm0 0"/><path d="m222.582031 371.941406c-8.289062 0-15.011719 6.722656-15.011719 15.011719v24.796875c0 8.292969 6.722657 15.011719 15.011719 15.011719 8.292969 0 15.011719-6.71875 15.011719-15.011719v-24.796875c0-8.289063-6.71875-15.011719-15.011719-15.011719zm0 0"/><path d="m283.539062 356.445312c-8.289062 0-15.011718 6.722657-15.011718 15.011719v40.292969c0 8.292969 6.722656 15.015625 15.011718 15.015625 8.292969 0 15.011719-6.722656 15.011719-15.015625v-40.292969c0-8.289062-6.71875-15.011719-15.011719-15.011719zm0 0"/><path d="m381.492188 0h-184.359376c-45.878906 0-83.203124 37.324219-83.203124 83.203125v44.910156h98.214843v-30.632812c0-4.722657 3.839844-8.5625 8.5625-8.5625h144.695313c13.191406 0 23.917968 10.730469 23.917968 23.917969v384.152343c0 8.289063 6.722657 15.011719 15.015626 15.011719h63.550781c8.289062 0 15.011719-6.722656 15.011719-15.011719v-395.585937c0-55.914063-45.488282-101.402344-101.40625-101.402344zm0 0"/></svg>